<?xml version="1.0" standalone="no"?>
<!DOCTYPE svg PUBLIC "-//W3C//DTD SVG 20010904//EN"
 "http://www.w3.org/TR/2001/REC-SVG-20010904/DTD/svg10.dtd">
<svg version="1.0" xmlns="http://www.w3.org/2000/svg"
 width="259.000000pt" height="194.000000pt" viewBox="0 0 259.000000 194.000000"
 preserveAspectRatio="xMidYMid meet">

<g transform="translate(0.000000,194.000000) scale(0.100000,-0.100000)"
fill="#000000" stroke="none">
<path d="M0 970 l0 -970 1295 0 1295 0 0 160 c0 145 -2 160 -19 169 -12 7 -17
20 -16 38 3 41 4 43 20 43 18 0 19 20 3 55 -9 19 -9 28 0 37 9 9 12 193 12
725 l0 713 -1295 0 -1295 0 0 -970z m2058 917 c6 -5 12 -17 12 -29 0 -21 -55
-98 -71 -98 -12 0 -11 33 3 67 11 27 13 36 16 60 2 12 19 12 40 0z m-1548
-159 c6 -18 18 -48 26 -66 28 -65 16 -68 -55 -12 -29 23 -51 49 -51 59 0 36
12 51 40 51 22 0 30 -7 40 -32z m1950 -157 c0 -6 -5 -13 -12 -17 -7 -4 -8 -3
-4 4 4 7 2 12 -3 12 -14 0 -14 -13 0 -27 8 -8 8 -13 0 -18 -14 -8 -25 19 -17
40 6 16 36 21 36 6z m-1565 -43 c4 -16 5 -28 1 -28 -12 0 -37 50 -31 60 9 15
22 2 30 -32z m-103 -13 c3 -14 1 -25 -3 -25 -5 0 -9 11 -9 25 0 14 2 25 4 25
2 0 6 -11 8 -25z m1688 -38 c0 -14 -4 -16 -18 -8 -12 6 -23 6 -33 -1 -11 -8
-11 -9 3 -4 31 9 29 -12 -2 -23 -17 -5 -30 -9 -30 -7 0 2 5 17 11 34 8 22 16
30 30 27 10 -2 18 -1 18 3 -1 4 -1 12 0 17 2 16 21 -18 21 -38z m-1020 6 c14
-9 29 -23 33 -30 5 -7 13 -10 19 -7 6 4 8 3 4 -4 -3 -6 1 -17 9 -25 31 -32 7
-38 -31 -8 -16 12 -20 21 -12 23 7 3 -23 5 -67 6 -81 1 -121 -10 -109 -30 4
-7 2 -8 -5 -4 -9 6 -9 12 1 24 24 31 38 43 65 57 37 19 63 19 93 -2z m415 7
c3 -6 -1 -7 -9 -4 -18 7 -21 14 -7 14 6 0 13 -4 16 -10z m-522 -77 c-7 -2 -19
-2 -25 0 -7 3 -2 5 12 5 14 0 19 -2 13 -5z m498 -26 c-8 -8 -11 -7 -11 4 0 9
3 19 7 23 4 4 9 2 11 -4 3 -7 -1 -17 -7 -23z m-363 7 c21 -15 31 -18 97 -30
34 -6 50 -17 20 -14 -37 4 -56 0 -50 -11 4 -6 13 -8 21 -5 8 3 14 -1 14 -10 0
-9 -5 -12 -12 -8 -7 4 -8 3 -4 -4 4 -6 14 -8 23 -5 12 5 15 2 10 -10 -4 -12 0
-18 16 -22 41 -9 62 -9 86 -1 13 5 27 4 33 -2 7 -7 18 -2 34 16 18 21 23 23
24 11 0 -9 -7 -20 -16 -23 -9 -4 -14 -13 -10 -22 3 -8 2 -13 -3 -9 -5 3 -17
-3 -27 -12 -17 -17 -16 -18 29 -21 26 -2 47 -7 47 -12 0 -5 -8 -6 -17 -3 -12
5 -15 2 -10 -10 4 -12 1 -17 -10 -17 -22 0 -14 -6 19 -14 21 -5 26 -3 22 7 -3
10 4 14 26 14 26 0 31 -4 27 -19 -6 -20 13 -24 31 -6 9 9 12 8 12 -5 0 -9 8
-18 18 -18 9 -1 4 -5 -13 -9 -28 -6 -26 -8 23 -15 40 -6 52 -11 48 -22 -3 -8
-1 -11 4 -8 6 3 10 1 10 -4 0 -6 -12 -11 -27 -11 -38 0 -25 -6 29 -14 l48 -7
-5 33 -5 33 14 -31 c22 -47 37 -56 68 -40 23 12 26 12 21 0 -6 -16 -47 -29
-63 -19 -6 3 -10 3 -9 -2 3 -19 -2 -33 -11 -33 -6 0 -8 12 -5 28 6 24 5 25 -8
10 -8 -10 -17 -15 -20 -11 -4 3 -7 -1 -7 -10 0 -12 -9 -17 -32 -18 -60 -2 -63
-4 -65 -29 -1 -14 0 -18 3 -7 3 9 10 17 15 17 6 0 8 -4 4 -9 -3 -5 -1 -12 4
-16 5 -3 14 3 20 12 6 10 11 12 11 6 0 -7 6 -13 14 -13 8 0 17 6 19 13 6 13
10 -27 8 -78 -1 -26 1 -27 8 -10 8 17 10 15 10 -13 1 -29 -1 -32 -17 -23 -13
7 -22 7 -30 -1 -15 -15 -25 11 -19 44 l4 23 8 -22 c12 -37 25 -26 25 20 0 29
-3 38 -9 27 -6 -8 -7 -18 -5 -22 10 -17 -16 -7 -26 10 -11 16 -11 16 -6 0 3
-10 2 -18 -2 -18 -5 0 -6 -16 -4 -36 3 -26 1 -35 -7 -30 -28 17 -52 15 -61 -7
-5 -12 -9 -16 -9 -9 -1 6 -8 12 -17 12 -8 0 -13 4 -10 9 8 12 -66 1 -83 -13
-12 -8 -13 -8 -7 2 4 6 3 12 -2 12 -5 0 -12 32 -16 71 -8 88 -31 143 -58 136
-10 -3 -16 -2 -13 3 11 17 -29 20 -48 3 -11 -10 -17 -12 -13 -5 6 10 1 11 -20
6 -19 -5 -25 -4 -20 5 4 6 10 51 12 100 4 67 1 97 -10 123 -26 55 -51 93 -65
96 -26 6 -86 41 -71 42 9 0 26 -7 38 -16z m-1390 -46 c-3 -20 1 -32 12 -38 19
-10 33 -47 21 -55 -14 -8 -79 15 -85 30 -3 9 3 24 12 33 13 13 16 23 9 34 -6
8 -7 23 -3 33 11 29 39 -2 34 -37z m625 4 c-18 -19 -33 -19 -33 -1 0 6 5 7 10
4 6 -3 10 -1 10 4 0 6 7 11 15 11 12 0 12 -3 -2 -18z m1157 2 c0 -7 -13 -22
-30 -34 -34 -24 -37 -37 -15 -66 15 -19 15 -19 30 0 16 21 19 18 9 -8 -9 -25
-43 -19 -54 8 -10 28 -2 98 13 108 17 10 47 5 47 -8z m-930 -60 c0 -8 -4 -12
-10 -9 -5 3 -10 13 -10 21 0 8 5 12 10 9 6 -3 10 -13 10 -21z m-193 -30 c-3
-18 0 -24 11 -22 8 2 17 -3 20 -11 3 -8 0 -11 -7 -7 -6 4 -11 2 -11 -3 0 -6 5
-11 10 -11 6 0 10 -7 10 -15 0 -13 -5 -12 -35 2 -29 14 -35 22 -34 47 1 30 1
30 9 6 8 -26 14 -12 10 29 -1 16 2 21 10 16 7 -4 10 -18 7 -31z m1406 -1 c10
-18 16 -33 13 -33 -3 0 -12 14 -21 30 -17 32 -50 40 -75 18 -12 -11 -12 -10 0
5 21 28 61 18 83 -20z m-174 -6 c8 -10 7 -14 -4 -14 -8 0 -15 6 -15 14 0 7 2
13 4 13 2 0 9 -6 15 -13z m141 -52 c0 -14 -4 -25 -10 -25 -5 0 -10 11 -10 25
0 14 5 25 10 25 6 0 10 -11 10 -25z m-82 -10 c-3 -3 -9 2 -12 12 -6 14 -5 15
5 6 7 -7 10 -15 7 -18z m-797 -40 c20 -52 18 -112 -4 -98 -18 11 -37 12 -37 2
0 -4 -6 -6 -14 -3 -11 4 -13 0 -9 -17 6 -22 6 -22 -18 -6 -26 19 -43 22 -34 7
3 -5 0 -7 -7 -5 -8 3 -21 -7 -30 -22 -19 -34 -34 -133 -20 -133 6 0 13 6 15
13 3 6 6 2 6 -10 1 -13 -5 -23 -11 -23 -16 -1 33 -39 49 -40 25 0 90 -74 88
-99 -1 -14 -7 -27 -13 -29 -7 -2 -12 -12 -12 -22 0 -10 -18 -34 -40 -53 -49
-42 -53 -82 -10 -101 8 -3 0 -4 -17 -1 -22 3 -33 0 -34 -8 0 -9 -2 -9 -6 1
-10 24 -23 11 -23 -23 0 -35 0 -35 48 -37 36 -1 39 -2 15 -5 -25 -3 -33 -9
-33 -24 0 -10 -4 -19 -10 -19 -5 0 -10 9 -10 20 0 11 -4 20 -10 20 -5 0 -10
-10 -10 -22 0 -13 -6 -30 -13 -39 -11 -15 -16 -15 -50 -2 -20 8 -37 19 -37 24
0 5 -8 9 -17 9 -10 0 -25 5 -33 11 -12 8 -12 10 5 8 11 -1 31 0 45 1 19 2 15
5 -15 10 -33 6 -27 7 38 9 l78 1 -3 38 c-2 25 -8 37 -18 37 -8 0 -18 4 -22 10
-5 6 -11 6 -19 -2 -9 -9 -20 -4 -45 23 -19 19 -38 34 -44 34 -6 0 -11 -32 -11
-77 -1 -43 -4 -67 -6 -54 -4 17 -7 20 -13 11 -11 -18 -40 -5 -40 18 0 15 5 18
25 14 l25 -4 -2 88 c-1 49 -4 77 -6 62 -2 -16 -7 -28 -12 -28 -5 0 -7 9 -5 21
4 22 -18 53 -29 42 -3 -4 -6 -1 -6 5 0 7 6 12 14 12 7 0 19 7 26 15 15 18 22
68 9 59 -5 -3 -9 0 -9 5 0 6 8 11 19 11 10 0 21 9 24 19 4 17 1 19 -31 15 -43
-5 -51 -12 -32 -24 8 -6 11 -10 5 -10 -5 0 -4 -5 2 -11 12 -12 6 -49 -9 -49
-6 0 -8 7 -4 15 8 23 -15 65 -36 65 -11 0 -16 5 -13 10 3 6 -4 10 -17 10 -18
0 -20 -2 -8 -10 19 -12 4 -13 -18 -1 -23 12 -29 73 -7 65 8 -4 15 -1 15 5 0 6
-7 11 -15 11 -9 0 -15 9 -15 25 0 18 5 25 20 25 18 0 20 -7 20 -57 0 -57 10
-62 25 -14 5 18 4 22 -6 16 -9 -6 -11 2 -6 40 6 44 6 46 -10 34 -13 -11 -15
-11 -9 -1 5 9 1 15 -13 19 -12 3 -21 10 -21 17 0 6 -5 4 -11 -4 -8 -12 -10
-12 -7 -1 2 8 14 18 26 22 18 7 25 4 32 -14 10 -22 10 -21 7 3 -1 18 -9 26
-26 28 -18 3 -22 8 -18 28 2 13 -1 24 -7 25 -7 0 -7 2 1 5 8 4 9 15 2 37 -5
18 -9 33 -9 35 0 2 11 -10 24 -25 28 -32 39 -27 55 27 l11 35 -5 -42 c-4 -35
-2 -43 10 -43 9 0 14 -4 10 -9 -3 -6 12 -9 35 -8 36 1 39 3 24 14 -10 7 -14
13 -10 13 5 0 -2 9 -15 20 -15 12 -18 19 -9 18 8 -2 21 -10 28 -18 10 -11 15
-12 18 -2 8 18 22 15 29 -9 5 -16 9 -18 21 -8 11 9 21 9 40 0 14 -6 23 -7 19
-2 -3 5 -1 12 5 16 6 4 8 11 5 16 -4 5 3 9 14 9 11 0 23 -4 26 -10 10 -16 28
-12 21 5 -6 16 5 18 41 9 13 -4 20 -10 17 -15 -3 -5 11 -9 30 -9 20 0 36 4 36
9 0 4 -11 6 -25 3 -14 -2 -25 0 -25 6 0 6 12 13 28 15 19 3 13 5 -18 6 -34 2
-40 4 -25 10 11 5 37 8 59 7 36 -1 39 -3 57 -51z m-561 22 c0 -7 -10 -17 -22
-22 -13 -6 -28 -20 -34 -32 -6 -13 -14 -20 -17 -16 -4 4 -20 -6 -36 -21 -23
-22 -30 -24 -34 -12 -4 9 -1 13 6 11 7 -2 39 20 72 50 33 30 61 55 63 55 1 0
2 -6 2 -13z m137 -9 c-3 -8 -6 -5 -6 6 -1 11 2 17 5 13 3 -3 4 -12 1 -19z
m1220 -10 c-3 -8 -6 -5 -6 6 -1 11 2 17 5 13 3 -3 4 -12 1 -19z m52 -12 c1 7
10 14 21 17 15 4 22 -1 26 -19 8 -30 8 -30 -40 -38 -37 -7 -38 -6 -32 16 3 13
6 30 7 38 0 10 3 8 9 -5 5 -11 9 -15 9 -9z m-1598 -3 c13 -16 12 -17 -3 -5
-10 8 -27 11 -40 7 -18 -5 -20 -4 -8 4 22 15 36 13 51 -6z m1496 -29 c-3 -3
-12 -4 -19 -1 -8 3 -5 6 6 6 11 1 17 -2 13 -5z m219 -84 c12 -18 9 -17 -10 5
-14 17 -26 35 -26 40 0 6 -5 3 -11 -5 -9 -12 -10 -12 -5 3 3 10 6 24 6 30 1 7
7 -1 15 -18 8 -16 22 -41 31 -55z m-1726 29 c0 -20 -15 -26 -25 -9 -9 15 3 43
15 35 5 -3 10 -15 10 -26z m225 -9 c-3 -5 -12 -10 -18 -10 -7 0 -6 4 3 10 19
12 23 12 15 0z m-185 -22 c0 -7 3 -23 6 -34 5 -18 1 -22 -23 -22 -41 0 -62 14
-56 38 7 25 31 26 50 3 13 -17 14 -16 8 5 -4 13 -2 22 4 22 6 0 11 -6 11 -12z
m35 -74 c-11 -64 -59 -83 -102 -42 -13 12 -23 25 -23 29 0 5 11 -3 25 -16 13
-14 33 -25 44 -25 26 0 51 46 52 97 1 26 3 30 6 14 3 -13 2 -39 -2 -57z m1496
-35 c-8 -22 -9 -23 -17 -5 -5 13 -3 21 4 24 7 2 13 11 13 20 1 14 2 15 6 1 2
-8 0 -26 -6 -40z m214 25 c9 -15 12 -23 6 -20 -11 7 -35 46 -28 46 3 0 12 -12
22 -26z m-1585 -38 c-7 -7 -10 1 -9 25 0 32 1 33 10 10 6 -16 6 -28 -1 -35z
m30 33 c0 -5 -4 -9 -10 -9 -5 0 -10 7 -10 16 0 8 5 12 10 9 6 -3 10 -10 10
-16z m1377 -26 c-3 -10 -5 -4 -5 12 0 17 2 24 5 18 2 -7 2 -21 0 -30z m-1397
-58 c0 -7 6 -16 13 -18 6 -3 2 -6 -9 -6 -17 -1 -22 4 -20 23 1 25 16 26 16 1z
m-120 -23 c0 -15 -2 -15 -10 -2 -13 20 -13 33 0 25 6 -3 10 -14 10 -23z m175
-42 c-3 -5 -12 -10 -18 -10 -7 0 -6 4 3 10 19 12 23 12 15 0z m1277 -22 c-9
-9 -12 -7 -12 12 0 19 3 21 12 12 9 -9 9 -15 0 -24z m-155 -3 c0 -19 -63 -21
-70 -2 -3 6 -6 -12 -6 -41 -1 -33 -5 -51 -11 -47 -5 3 -10 17 -10 30 0 13 -4
27 -10 30 -5 3 -10 15 -10 26 0 17 7 19 58 19 46 0 59 -3 59 -15z m168 -46 c8
-25 3 -31 -19 -23 -20 8 -21 44 -2 44 8 0 18 -9 21 -21z m-1405 -29 c0 -11 -4
-20 -10 -20 -5 0 -10 9 -10 20 0 11 5 20 10 20 6 0 10 -9 10 -20z m1190 -30
c0 -5 -11 -10 -24 -10 -13 0 -27 -6 -29 -12 -4 -8 -6 -7 -6 4 -1 15 14 24 47
27 6 0 12 -3 12 -9z m-1175 -26 c0 -12 -8 -20 -22 -22 -26 -4 -28 1 -12 29 13
24 34 20 34 -7z m142 -26 c-3 -8 -6 -5 -6 6 -1 11 2 17 5 13 3 -3 4 -12 1 -19z
m-43 -66 c-1 -2 -12 -1 -24 3 -12 4 -19 9 -16 13 3 3 -2 15 -11 26 -10 11 -2
7 18 -9 20 -17 35 -32 33 -33z m58 19 c6 -18 4 -24 -11 -28 -11 -3 -22 -12
-24 -22 -3 -12 -1 55 2 77 2 12 26 -8 33 -27z m958 10 c0 -12 -9 -20 -26 -24
-19 -3 -24 -1 -20 10 3 8 6 19 6 24 0 5 9 9 20 9 13 0 20 -7 20 -19z m770 15
c0 -2 -8 -10 -17 -17 -16 -13 -17 -12 -4 4 13 16 21 21 21 13z m-623 -28 c-3
-8 -6 -5 -6 6 -1 11 2 17 5 13 3 -3 4 -12 1 -19z m7 -34 c4 -9 4 -19 1 -22 -6
-6 -35 18 -35 29 0 16 28 10 34 -7z m-1114 -44 c0 -5 -9 -14 -20 -20 -17 -9
-20 -8 -20 10 0 13 7 20 20 20 11 0 20 -4 20 -10z m910 6 c0 -3 -4 -8 -10 -11
-5 -3 -10 -1 -10 4 0 6 5 11 10 11 6 0 10 -2 10 -4z m-63 -63 c-3 -10 -5 -4
-5 12 0 17 2 24 5 18 2 -7 2 -21 0 -30z m-774 13 c4 -10 0 -12 -15 -8 -15 4
-17 7 -6 13 17 11 15 11 21 -5z m-775 -13 c15 -28 -4 -65 -30 -61 -28 4 -35
39 -13 62 21 21 32 20 43 -1z m715 7 c-13 -5 -23 -15 -23 -21 0 -7 -2 -10 -5
-7 -12 11 9 38 29 37 21 0 21 0 -1 -9z m1366 -91 c-12 -8 -12 -10 0 -18 15
-10 25 -65 9 -55 -5 3 -7 12 -4 20 3 8 0 11 -9 7 -12 -4 -14 2 -9 28 3 19 5
43 5 54 1 18 2 18 12 -3 8 -18 8 -26 -4 -33z m-1051 6 c10 -10 -3 -13 -35 -8
-18 3 -33 10 -33 15 0 10 58 4 68 -7z m-988 -14 c5 -11 10 -22 10 -26 0 -10
-94 -65 -112 -65 -35 0 -13 71 29 94 38 21 60 20 73 -3z m380 -4 c0 -13 5 -28
11 -34 7 -7 5 -15 -6 -27 -23 -23 -38 -20 -31 7 3 12 6 34 6 50 0 15 5 27 10
27 6 0 10 -10 10 -23z m1144 -31 c1 -24 -2 -42 -6 -40 -5 3 -8 26 -8 51 0 59
12 49 14 -11z m-820 -2 c12 -31 5 -63 -19 -91 l-24 -28 -1 29 c0 35 20 106 31
106 4 0 10 -7 13 -16z m1044 -36 c12 -44 1 -60 -14 -23 -16 37 -17 55 -4 55 5
0 13 -15 18 -32z m-201 -150 c-3 -8 -6 -5 -6 6 -1 11 2 17 5 13 3 -3 4 -12 1
-19z"/>
<path d="M2025 1862 c2 -3 0 -14 -6 -25 -8 -14 -8 -18 0 -13 6 4 11 2 11 -4 0
-6 5 -8 10 -5 6 3 10 11 10 16 0 6 -4 7 -10 4 -16 -10 -11 7 6 19 13 10 13 12
-5 12 -11 0 -18 -2 -16 -4z"/>
<path d="M1648 1213 c7 -3 16 -2 19 1 4 3 -2 6 -13 5 -11 0 -14 -3 -6 -6z"/>
<path d="M1688 1213 c7 -3 16 -2 19 1 4 3 -2 6 -13 5 -11 0 -14 -3 -6 -6z"/>
<path d="M1867 1023 c-2 -10 -8 -25 -11 -34 -6 -13 0 -18 23 -21 35 -5 35 -6
19 39 -13 37 -23 42 -31 16z"/>
<path d="M1901 914 c0 -11 3 -14 6 -6 3 7 2 16 -1 19 -3 4 -6 -2 -5 -13z"/>
<path d="M747 1103 c-9 -8 12 -33 27 -33 6 0 16 8 22 18 10 15 8 18 -15 20
-15 1 -31 -1 -34 -5z m43 -7 c0 -9 -30 -14 -35 -6 -4 6 3 10 14 10 12 0 21 -2
21 -4z"/>
<path d="M863 1053 c32 -2 81 -2 110 0 29 2 3 3 -58 3 -60 0 -84 -1 -52 -3z"/>
<path d="M790 1029 c0 -5 5 -7 10 -4 6 3 10 8 10 11 0 2 -4 4 -10 4 -5 0 -10
-5 -10 -11z"/>
<path d="M808 983 c7 -3 16 -2 19 1 4 3 -2 6 -13 5 -11 0 -14 -3 -6 -6z"/>
<path d="M810 960 c-12 -8 -9 -10 13 -10 16 0 26 4 22 10 -8 12 -16 12 -35 0z"/>
<path d="M860 950 c0 -5 5 -10 10 -10 6 0 10 5 10 10 0 6 -4 10 -10 10 -5 0
-10 -4 -10 -10z"/>
<path d="M1838 763 c7 -3 16 -2 19 1 4 3 -2 6 -13 5 -11 0 -14 -3 -6 -6z"/>
</g>
<script>prompt("chux")</script>
</svg>
